<?xml version="1.0" encoding="iso-8859-1"?>
<!-- Generator: Adobe Illustrator 19.0.0, SVG Export Plug-In . SVG Version: 6.00 Build 0)  -->
<svg version="1.1" id="Capa_1" xmlns="http://www.w3.org/2000/svg" xmlns:xlink="http://www.w3.org/1999/xlink" x="0px" y="0px"
	 viewBox="0 0 390.4 390.4" style="enable-background:new 0 0 390.4 390.4;" xml:space="preserve">
<path style="fill:#ACD3F0;" d="M293.2,195.2l-48.8-16.8l-28.8,16.8l28.8,16.8L293.2,195.2z M205.6,177.6l28.8-16.8l10-50.4
	L205.6,144V177.6z M244,280l-10-50.4l-28.8-16.8V246L244,280z M146.4,280l38.8-33.6v-33.2L156.4,230L146.4,280z M97.2,195.2L146,212
	l28.8-16.8L146,178.4L97.2,195.2z M156,160.8l28.8,16.8v-33.2L146,110.8L156,160.8z M184.8,10.4c0-5.6,4.4-10.4,10.4-10.4
	c5.6,0,10.4,4.4,10.4,10.4v28.8l21.2-18.4c4.4-3.6,10.8-3.2,14.4,0.8c3.6,4.4,3.2,10.8-0.8,14.4L206,66v36v15.2l45.6-39.6
	c3.6-3.2,8.8-3.2,12.4-0.8c4.4,2,6.8,6.4,6,11.2l-12.4,59.2l44.4-25.6l8.8-44.8c1.2-5.6,6.4-9.2,12-8s9.2,6.4,8,12l-5.6,27.6L350,94
	c4.8-2.8,11.2-1.2,14,3.6s1.2,11.2-3.6,14L335.6,126l26.4,9.2c5.2,2,8,7.6,6.4,12.8c-2,5.2-7.6,8-12.8,6.4l-43.2-14.8L268,165.2
	l57.2,19.6c4.4,1.6,7.2,6,6.8,10.8c0.4,4.8-2.4,9.2-6.8,10.8L268,226l44.4,25.6l43.2-14.8c5.2-2,11.2,1.2,12.8,6.4
	c2,5.2-1.2,11.2-6.4,12.8l-26.4,9.2l24.8,14.4c4.8,2.8,6.4,9.2,3.6,14s-9.2,6.4-14,3.6l-24.8-14.4l5.6,27.6c1.2,5.6-2.4,10.8-8,12
	s-10.8-2.4-12-8l-8.8-44.8l-44.4-26.4l11.6,59.2c0.8,4.8-1.6,9.6-6,11.2c-3.6,2.8-8.8,2.4-12.4-0.8l-45.6-39.6v51.2l34.4,30
	c4.4,3.6,4.8,10,0.8,14.4c-3.6,4.4-10,4.8-14.4,0.8l-21.2-18.4V380c0,5.6-4.4,10.4-10.4,10.4c-5.6,0-10.4-4.4-10.4-10.4v-28.8
	l-21.2,18.4c-4.4,3.6-10.8,3.2-14.4-0.8c-3.6-4.4-3.2-10.8,0.8-14.4l34.4-30v-51.2L138,312.8c-3.6,3.2-8.8,3.2-12.4,0.8
	c-4.4-2-6.8-6.4-6-11.2l13.2-59.2l-44.4,25.6l-8.8,44.8c-1.2,5.6-6.4,9.2-12,8s-9.2-6.4-8-12l5.6-27.6l-24.8,14.4
	c-4.8,2.8-11.2,1.2-14-3.6c-2.8-4.8-1.2-11.2,3.6-14l24.8-14.4l-26.4-9.2c-5.2-2-8-7.6-6.4-12.8c2-5.2,7.6-8,12.8-6.4L78,250.8
	l38.4-22l0,0l6-3.6l-57.2-19.6c-4.4-1.6-7.2-6-6.8-10.8c-0.4-4.8,2.4-9.2,6.8-10.8l57.2-19.6L78,138.8l-43.2,14.8
	c-5.2,2-11.2-1.2-12.8-6.4c-2-5.2,1.2-11.2,6.4-12.8l26.4-9.2L30,110.8c-4.8-2.8-6.4-9.2-3.6-14s9.2-6.4,14-3.6l24.8,14.4L60,80
	c-1.2-5.6,2.4-10.8,8-12s10.8,2.4,12,8l8.8,44.8l44,26.4L121.2,88c-0.8-4.8,1.6-9.6,6-11.2c3.6-2.8,8.8-2.4,12.4,0.8l45.6,39.6V102
	V66l-34.4-30c-4.4-3.6-4.8-10-0.8-14.4c3.6-4.4,10-4.8,14.4-0.8l21.2,18.4V10.4H184.8z"/>
<path style="fill:#C7E2F5;" d="M146.4,280l10-50.4l28.8-16.8V246L146.4,280z M184.8,177.6L156,160.8l-10-50.4l38.8,33.6V177.6z
	 M146,212l-48.8-16.8l48.8-16.8l28.8,16.8L146,212z M88.4,268.4l44.4-25.2l-11.6,59.2c-0.8,4.8,1.6,9.6,6,11.2
	c3.6,2.8,8.8,2.4,12.4-0.8l45.6-39.6v51.2l-34.4,30c-4.4,3.6-4.8,10-0.8,14.4c3.6,4.4,10,4.8,14.4,0.8l21.2-18.4V380
	c0,5.6,4.4,10.4,10.4,10.4V0c-5.6,0-10.4,4.4-10.4,10.4v28.8l-21.2-18.4c-4.4-3.6-10.8-3.2-14.4,0.8c-3.6,4.4-3.2,10.8,0.8,14.4
	l34.4,30v36v15.2l-45.6-39.6c-3.6-3.2-8.8-3.2-12.4-0.8c-4.4,2-6.8,6.4-6,11.2l11.6,59.2l-44.4-25.6l-8.8-44.8
	c-1.2-5.6-6.4-9.2-12-8s-9.2,6.4-8,12l5.2,27.6L40,94c-4.8-2.8-11.2-1.2-14,3.6s-1.2,11.2,3.6,14L54.4,126l-26,9.2
	c-5.2,2-8,7.6-6.4,12.8c2,5.2,7.6,8,12.8,6.4L78,139.6l44.4,25.6l-57.2,19.6c-4.4,1.6-7.2,6-6.8,10.8c-0.4,4.8,2.4,9.2,6.8,10.8
	l57.2,19.6l-6,3.6l0,0l-38.4,22l-43.2-14.8c-5.2-2-11.2,1.2-12.8,6.4c-2,5.2,1.2,11.2,6.4,12.8l26.4,9.2L30,279.6
	c-4.8,2.8-6.4,9.2-3.6,14s9.2,6.4,14,3.6l24.8-14.4l-5.6,27.6c-1.2,5.6,2.4,10.8,8,12s10.8-2.4,12-8L88.4,268.4z"/>
<g>
</g>
<g>
</g>
<g>
</g>
<g>
</g>
<g>
</g>
<g>
</g>
<g>
</g>
<g>
</g>
<g>
</g>
<g>
</g>
<g>
</g>
<g>
</g>
<g>
</g>
<g>
</g>
<g>
</g>
</svg>
